<svg xmlns="http://www.w3.org/2000/svg" viewBox="0 0 720 560" role="img" aria-labelledby="title desc">
  <title id="title">Colorful bear riding toy</title>
  <desc id="desc">A bright yellow and blue cartoon bear riding toy with wheels.</desc>
  <defs>
    <filter id="shadow" x="-20%" y="-20%" width="140%" height="140%">
      <feDropShadow dx="0" dy="18" stdDeviation="16" flood-color="#1f5790" flood-opacity=".22"/>
    </filter>
  </defs>
  <g filter="url(#shadow)">
    <path fill="#245cc9" d="M168 426h330c22 0 40 18 40 40s-18 40-40 40H168c-22 0-40-18-40-40s18-40 40-40Z"/>
    <path fill="#ffcf22" d="M260 122c-55 12-93 69-93 139v91c0 47 38 85 85 85h179c47 0 85-38 85-85v-91c0-83-54-144-128-144h-59c-22 0-45 2-69 5Z"/>
    <path fill="#2676d9" d="M305 95h142c12 0 22 10 22 22v32c0 21-17 38-38 38H322c-28 0-50-22-50-50v-9c0-18 15-33 33-33Z"/>
    <circle cx="278" cy="210" r="24" fill="#2676d9"/>
    <circle cx="410" cy="210" r="24" fill="#2676d9"/>
    <circle cx="285" cy="206" r="8" fill="#10162f"/>
    <circle cx="403" cy="206" r="8" fill="#10162f"/>
    <path fill="none" stroke="#10162f" stroke-linecap="round" stroke-width="13" d="M325 270c23 18 55 18 78 0"/>
    <ellipse cx="363" cy="245" fill="#10162f" rx="18" ry="12"/>
    <path fill="#1f62ca" d="M477 170h65c47 0 85 38 85 85v14c0 22-18 40-40 40s-40-18-40-40v-14c0-3-2-5-5-5h-65c-22 0-40-18-40-40s18-40 40-40Z"/>
    <path fill="#1f62ca" d="M197 213h-60c-18 0-33-15-33-33s15-33 33-33h60c18 0 33 15 33 33s-15 33-33 33Z"/>
    <circle cx="206" cy="462" r="54" fill="#1e6bd9"/>
    <circle cx="206" cy="462" r="24" fill="#8bd7ff"/>
    <circle cx="493" cy="462" r="54" fill="#1e6bd9"/>
    <circle cx="493" cy="462" r="24" fill="#8bd7ff"/>
    <rect x="302" y="328" width="120" height="56" rx="18" fill="#fff"/>
    <path fill="#ff6c6c" d="M260 353c-18 0-33-15-33-33v-54c0-18 15-33 33-33s33 15 33 33v54c0 18-15 33-33 33Z"/>
    <path fill="#ff6c6c" d="M467 353c-18 0-33-15-33-33v-54c0-18 15-33 33-33s33 15 33 33v54c0 18-15 33-33 33Z"/>
  </g>
</svg>
