<svg xmlns="http://www.w3.org/2000/svg" viewBox="0 0 720 560" role="img" aria-labelledby="title desc">
  <title id="title">Yellow dino riding toy</title>
  <desc id="desc">A yellow dinosaur shaped riding toy with red wheels.</desc>
  <defs>
    <filter id="shadow" x="-20%" y="-20%" width="140%" height="140%">
      <feDropShadow dx="0" dy="18" stdDeviation="15" flood-color="#93591f" flood-opacity=".22"/>
    </filter>
  </defs>
  <g filter="url(#shadow)">
    <path fill="#ffcf31" d="M178 300c0-92 74-166 166-166h135c59 0 107 48 107 107v97c0 47-38 85-85 85H263c-47 0-85-38-85-85v-38Z"/>
    <path fill="#ffcf31" d="M460 128c20-44 58-71 102-71 49 0 88 40 88 89 0 44-34 81-77 88l-80 13-34-45 41-22c21-11 20-42-2-52l-38-17Z"/>
    <circle cx="574" cy="132" r="15" fill="#fff"/>
    <circle cx="578" cy="132" r="7" fill="#15233f"/>
    <path fill="none" stroke="#15233f" stroke-linecap="round" stroke-width="10" d="M568 174c22 10 45 8 66-5"/>
    <path fill="#1e9be8" d="M232 214h170c19 0 35 16 35 35v28H197v-28c0-19 16-35 35-35Z"/>
    <path fill="#ff645d" d="M238 420h292c24 0 44 20 44 44s-20 44-44 44H238c-24 0-44-20-44-44s20-44 44-44Z"/>
    <circle cx="274" cy="463" r="55" fill="#ff645d"/>
    <circle cx="274" cy="463" r="24" fill="#ffd947"/>
    <circle cx="514" cy="463" r="55" fill="#ff645d"/>
    <circle cx="514" cy="463" r="24" fill="#ffd947"/>
    <path fill="#ff645d" d="M230 294h-59c-20 0-37-16-37-37s17-37 37-37h59c20 0 37 17 37 37s-17 37-37 37Z"/>
    <rect x="535" y="230" width="92" height="38" rx="19" fill="#ff645d"/>
    <path fill="#fff" d="M348 334c-31 0-56-25-56-56h112c0 31-25 56-56 56Z" opacity=".9"/>
  </g>
</svg>
