<svg xmlns="http://www.w3.org/2000/svg" viewBox="0 0 720 560" role="img" aria-labelledby="title desc">
  <title id="title">Pony rocking rider</title>
  <desc id="desc">A bright pony rocker with blue wheels and green base.</desc>
  <g>
    <path fill="#4ed665" d="M158 426h404c30 0 54 24 54 54v4H104v-4c0-30 24-54 54-54Z"/>
    <path fill="#ffd32d" d="M249 192c35-80 124-116 203-81 58 26 96 83 96 147v97c0 48-39 87-87 87H270c-48 0-87-39-87-87v-43c0-45 26-86 66-120Z"/>
    <path fill="#ffd32d" d="M448 118c31-50 91-73 148-50l29 12-36 41c-10 11-11 28-2 40l24 32-69 13c-44 8-88-12-110-51l16-37Z"/>
    <path fill="#5c2d1e" d="M465 108c31-41 81-58 129-43l32 10-41 28c-38 26-84 35-128 25l8-20Z"/>
    <circle cx="554" cy="112" r="13" fill="#fff"/>
    <circle cx="558" cy="112" r="6" fill="#17223b"/>
    <rect x="239" y="262" width="221" height="78" rx="39" fill="#2e70e8"/>
    <path fill="#4ed665" d="M206 393h306c25 0 45 20 45 45v2H161v-2c0-25 20-45 45-45Z"/>
    <circle cx="248" cy="450" r="48" fill="#1678db"/>
    <circle cx="248" cy="450" r="22" fill="#8edaff"/>
    <circle cx="488" cy="450" r="48" fill="#1678db"/>
    <circle cx="488" cy="450" r="22" fill="#8edaff"/>
    <path fill="none" stroke="#5c2d1e" stroke-linecap="round" stroke-width="14" d="M530 137c32 24 59 60 75 98"/>
    <path fill="#ff7c42" d="M206 229c-45-22-67-66-48-99 39 22 68 55 88 98l-40 1Z"/>
  </g>
</svg>
